Coordinates
version=1
nRows=49
nColumns=12
inDegrees=yes

Units are S.I. units (second, meters, Newtons, ...)
Angles are in degrees

endheader
time	SC_y	SC_z	SC_x	AC_y	AC_z	AC_x	GH_y	GH_z	GH_yy	EL_x	PS_y
       0.0              -59.68           23.2          76.03          43.82         -9.299          1.637          27.18           53.0          55.66          136.5          71.51
  0.003691              -59.67           23.2          76.02          43.82         -9.298          1.636          27.17           53.0          55.66          136.5          71.51
  0.007382              -59.67           23.2          76.02          43.82         -9.296          1.634          27.15          52.99          55.65          136.5           71.5
   0.01107              -59.66           23.2          76.02          43.82         -9.294          1.632          27.14          52.98          55.65          136.5           71.5
   0.01476              -59.66          23.19          76.01          43.82         -9.292           1.63          27.12          52.97          55.65          136.5           71.5
   0.01846              -59.65          23.19          76.01          43.83          -9.29          1.628          27.11          52.96          55.64          136.5           71.5
   0.02215              -59.64          23.19           76.0          43.83         -9.287          1.626          27.09          52.95          55.63          136.5           71.5
   0.02584              -59.63          23.19           76.0          43.83         -9.285          1.624          27.07          52.94          55.63          136.5           71.5
   0.02953              -59.62          23.18          75.99          43.83         -9.282          1.621          27.05          52.93          55.62          136.5           71.5
   0.03322              -59.61          23.18          75.99          43.84         -9.279          1.618          27.03          52.92          55.62          136.5           71.5
   0.03691               -59.6          23.17          75.98          43.84         -9.276          1.616           27.0          52.91          55.61          136.5           71.5
    0.0406              -59.59          23.17          75.97          43.84         -9.273          1.612          26.98           52.9           55.6          136.5          71.49
   0.04429              -59.58          23.16          75.97          43.85         -9.269          1.609          26.95          52.88          55.59          136.5          71.49
   0.04799              -59.57          23.16          75.96          43.85         -9.265          1.605          26.92          52.87          55.58          136.4          71.49
   0.05168              -59.56          23.15          75.95          43.85         -9.261          1.602          26.89          52.85          55.58          136.4          71.49
   0.05537              -59.54          23.15          75.94          43.86         -9.256          1.597          26.85          52.83          55.56          136.4          71.49
   0.05906              -59.52          23.14          75.93          43.86         -9.252          1.593          26.82          52.81          55.55          136.4          71.49
   0.06275              -59.51          23.13          75.92          43.87         -9.246          1.588          26.78          52.79          55.54          136.4          71.48
   0.06644              -59.49          23.13          75.91          43.88          -9.24          1.582          26.73          52.77          55.53          136.4          71.48
   0.07013              -59.47          23.12           75.9          43.88         -9.234          1.576          26.68          52.74          55.51          136.4          71.48
   0.07382              -59.44          23.11          75.88          43.89         -9.227           1.57          26.63          52.72           55.5          136.4          71.47
   0.07751              -59.42           23.1          75.87           43.9         -9.219          1.562          26.57          52.69          55.48          136.4          71.47
   0.08121              -59.39          23.09          75.85          43.91          -9.21          1.554           26.5          52.65          55.46          136.4          71.47
    0.0849              -59.36          23.07          75.83          43.92         -9.201          1.545          26.43          52.61          55.44          136.4          71.46
   0.08859              -59.33          23.06          75.81          43.93          -9.19          1.536          26.35          52.57          55.41          136.4          71.46
   0.09228              -59.29          23.04          75.79          43.94         -9.178          1.525          26.26          52.53          55.39          136.4          71.45
   0.09597              -59.24          23.02          75.76          43.95         -9.165          1.512          26.16          52.47          55.36          136.4          71.45
   0.09966               -59.2           23.0          75.73          43.97          -9.15          1.498          26.05          52.42          55.32          136.3          71.44
    0.1034              -59.14          22.98           75.7          43.98         -9.133          1.483          25.92          52.35          55.28          136.3          71.43
     0.107              -59.08          22.96          75.66           44.0         -9.114          1.465          25.77          52.27          55.24          136.3          71.43
    0.1107              -59.01          22.93          75.62          44.03         -9.092          1.444          25.61          52.19          55.19          136.3          71.42
    0.1144              -58.93          22.89          75.57          44.05         -9.067          1.421          25.42          52.09          55.13          136.3           71.4
    0.1181              -58.83          22.85          75.51          44.08         -9.038          1.394           25.2          51.98          55.07          136.2          71.39
    0.1218              -58.72          22.81          75.44          44.12         -9.005          1.363          24.94          51.84          54.99          136.2          71.38
    0.1255               -58.6          22.76          75.37          44.16         -8.965          1.326          24.64          51.69           54.9          136.2          71.36
    0.1292              -58.44          22.69          75.28           44.2         -8.919          1.283          24.29          51.51           54.8          136.1          71.34
    0.1329              -58.27          22.62          75.17          44.26         -8.864          1.232          23.87          51.29          54.67          136.1          71.32
    0.1366              -58.05          22.53          75.04          44.33         -8.798           1.17          23.37          51.03          54.52          136.0          71.29
    0.1403              -57.79          22.42          74.88          44.41         -8.718          1.096          22.76          50.72          54.34          136.0          71.25
     0.144              -57.47          22.29          74.69          44.51          -8.62          1.005          22.02          50.33          54.12          135.9          71.21
    0.1476              -57.08          22.13          74.45          44.63           -8.5         0.8925          21.11          49.86          53.84          135.8          71.16
    0.1513               -56.6          21.93          74.15          44.78         -8.349         0.7526          19.96          49.27           53.5          135.6          71.09
     0.155              -55.98          21.67          73.78          44.97          -8.16         0.5763          18.53          48.53          53.07          135.5          71.01
    0.1587               -55.2          21.35           73.3          45.22         -7.919         0.3522           16.7          47.58          52.52          135.3           70.9
    0.1624               -54.2          20.94          72.69          45.53         -7.611        0.06533          14.36          46.37          51.82          135.0          70.77
    0.1661              -52.92           20.4          71.91          45.94         -7.216        -0.3028          11.36          44.82          50.92          134.6           70.6
    0.1698              -51.28          19.73          70.92          46.45         -6.711         -0.773          7.521          42.84          49.77          134.2          70.38
    0.1735              -49.21          18.87          69.66          47.09         -6.076         -1.364          2.699          40.34          48.32          133.6           70.1
    0.1772               -46.7          17.83          68.13          47.88         -5.303         -2.085         -3.177           37.3          46.56          133.0          69.76
